<svg width="547" height="124" viewBox="0 0 547 124" fill="none" xmlns="http://www.w3.org/2000/svg">
<path d="M88.08 69.45C86.76 67.97 84.98 67.19 82.94 67.19H80.74C80.65 67.17 80.46 67.02 80.22 66.6C79.68 65.68 79.41 64.39 79.41 62.78V14.81C79.41 12.72 78.67 10.88 77.28 9.48001C75.88 8.08001 74.04 7.35001 71.95 7.35001C69.86 7.35001 68.01 8.09001 66.62 9.48001C65.23 10.88 64.49 12.72 64.49 14.81V62.79C64.49 66.39 65.15 69.64 66.44 72.46C67.77 75.38 69.68 77.73 72.12 79.44C74.63 81.21 77.53 82.11 80.74 82.11H80.92C83.34 82.11 85.4 81.49 87.04 80.28C88.94 78.88 89.95 76.93 89.95 74.65C89.95 72.6 89.32 70.85 88.08 69.45Z" fill="#0075C9"/>
<path d="M112.29 22.62C113.45 21.91 114.8 21.57 116.41 21.57C118.46 21.57 120.3 20.87 121.71 19.56C123.18 18.19 123.96 16.43 123.96 14.46C123.96 12.42 123.17 10.62 121.67 9.28001C120.26 8.02001 118.45 7.35001 116.42 7.35001C111.97 7.35001 107.97 8.36001 104.52 10.35C101.05 12.36 98.31 15.2 96.37 18.8C94.68 21.95 93.73 25.59 93.54 29.67H92.79C90.8 29.67 89.05 30.31 87.73 31.53C86.34 32.82 85.6 34.57 85.6 36.6C85.6 38.51 86.34 40.2 87.73 41.49C89.06 42.71 90.81 43.36 92.8 43.36H93.51V74.57C93.51 76.76 94.3 78.66 95.8 80.06C97.24 81.4 99 82.12 100.88 82.12C103.74 82.12 105.5 80.96 106.47 79.99C107.86 78.6 108.6 76.72 108.6 74.57V43.36H114.5C116.49 43.36 118.24 42.72 119.56 41.5C120.96 40.21 121.69 38.52 121.69 36.61C121.69 34.59 120.96 32.84 119.57 31.55C118.24 30.32 116.49 29.68 114.5 29.68H108.62C108.69 28.08 109.03 26.69 109.62 25.54C110.25 24.27 111.13 23.32 112.29 22.62Z" fill="#0075C9"/>
<path d="M55.4 41.05C53 36.92 49.72 33.6 45.65 31.2C41.55 28.79 36.89 27.57 31.79 27.57C26.69 27.57 22.02 28.79 17.9 31.19C13.79 33.59 10.49 36.91 8.09 41.05C5.69 45.2 4.47 49.91 4.47 55.06C4.47 60.18 5.58 64.85 7.78 68.94C9.99 73.06 13.05 76.37 16.89 78.78C20.77 81.22 25.19 82.46 30.03 82.46C34.87 82.46 39.29 81.22 43.17 78.78C43.65 78.48 44.12 78.16 44.58 77.83C44.94 78.64 45.45 79.38 46.1 80.03C47.51 81.45 49.37 82.2 51.47 82.2C53.56 82.2 56.6 81.5 58.37 80.55C63.15 77.96 59.02 76.75 59.02 74.66V55.06C59.02 49.91 57.8 45.19 55.4 41.05ZM31.79 68.43C29.41 68.43 27.32 67.87 25.42 66.72C23.49 65.56 22.01 64 20.89 61.97C19.76 59.92 19.21 57.66 19.21 55.06C19.21 52.4 19.76 50.11 20.89 48.06C22.01 46.03 23.49 44.48 25.42 43.31C27.32 42.16 29.41 41.6 31.79 41.6C34.22 41.6 36.32 42.16 38.19 43.3C40.08 44.46 41.54 46.01 42.63 48.03C43.74 50.08 44.28 52.38 44.28 55.05C44.28 57.66 43.74 59.93 42.63 61.98C41.53 64.01 40.08 65.56 38.19 66.71C36.32 67.87 34.23 68.43 31.79 68.43Z" fill="#0075C9"/>
<path d="M171.66 41.05C169.26 36.92 165.98 33.6 161.91 31.2C157.81 28.79 153.15 27.57 148.05 27.57C142.95 27.57 138.28 28.79 134.16 31.19C130.05 33.59 126.75 36.91 124.35 41.05C121.95 45.2 120.73 49.91 120.73 55.06C120.73 60.18 121.84 64.85 124.04 68.94C126.25 73.06 129.31 76.37 133.15 78.78C137.03 81.22 141.45 82.46 146.29 82.46C151.13 82.46 155.55 81.22 159.43 78.78C159.91 78.48 160.38 78.16 160.84 77.83C161.2 78.64 161.71 79.38 162.36 80.03C163.77 81.45 165.63 82.2 167.73 82.2C169.82 82.2 172.86 81.5 174.63 80.55C179.41 77.96 175.28 76.75 175.28 74.66V55.06C175.28 49.91 174.06 45.19 171.66 41.05ZM148.05 68.43C145.67 68.43 143.58 67.87 141.68 66.72C139.75 65.56 138.27 64 137.15 61.97C136.02 59.92 135.47 57.66 135.47 55.06C135.47 52.4 136.02 50.11 137.15 48.06C138.27 46.03 139.75 44.48 141.68 43.31C143.58 42.16 145.67 41.6 148.05 41.6C150.48 41.6 152.58 42.16 154.45 43.3C156.34 44.46 157.8 46.01 158.89 48.03C160 50.08 160.54 52.38 160.54 55.05C160.54 57.66 160 59.93 158.89 61.98C157.79 64.01 156.34 65.56 154.45 66.71C152.57 67.87 150.48 68.43 148.05 68.43Z" fill="#0075C9"/>
<path d="M77.19 100.44C76.03 99.72 74.62 99.36 73.01 99.36C71.38 99.36 69.92 99.73 68.66 100.47C67.4 101.2 66.39 102.23 65.68 103.53C64.97 104.82 64.61 106.33 64.61 108.01C64.61 109.68 64.99 111.18 65.75 112.47C66.51 113.76 67.56 114.79 68.9 115.52C70.23 116.25 71.76 116.62 73.47 116.62C74.42 116.62 75.42 116.44 76.46 116.1C77.5 115.75 78.38 115.29 79.08 114.73C79.63 114.31 79.72 113.83 79.7 113.49C79.68 113.03 79.45 112.61 79.03 112.24C78.7 111.96 78.31 111.83 77.87 111.84C77.45 111.85 77.05 111.99 76.69 112.26C76.32 112.53 75.83 112.78 75.23 112.99C74.63 113.2 74.03 113.31 73.47 113.31C72.41 113.31 71.46 113.08 70.65 112.61C69.84 112.15 69.2 111.52 68.74 110.72C68.5 110.32 68.33 109.88 68.21 109.41H79.06C79.56 109.41 79.97 109.25 80.3 108.93C80.63 108.61 80.8 108.2 80.8 107.72C80.8 106.1 80.49 104.65 79.88 103.41C79.25 102.16 78.35 101.16 77.19 100.44ZM68.61 105.23C68.99 104.44 69.56 103.8 70.3 103.35C71.04 102.89 71.95 102.66 73 102.66C73.91 102.66 74.69 102.87 75.32 103.28C75.95 103.7 76.45 104.27 76.79 104.99C76.98 105.39 77.12 105.82 77.22 106.28H68.22C68.32 105.92 68.45 105.56 68.61 105.23Z" fill="#0075C9"/>
<path d="M91.47 98.32C92.22 97.53 93.09 96.89 94.08 96.44C95.06 95.99 96.11 95.76 97.23 95.76C98.46 95.76 99.46 95.92 100.19 96.23C100.93 96.55 101.67 97.02 102.38 97.64C102.81 97.98 103.26 98.12 103.74 98.09C104.2 98.05 104.6 97.88 104.93 97.58C105.28 97.26 105.45 96.85 105.45 96.37C105.45 96.16 105.43 95.98 105.4 95.82C105.36 95.65 105.28 95.48 105.16 95.31C105.05 95.15 104.89 94.99 104.72 94.86C103.58 93.93 102.43 93.24 101.29 92.83C100.15 92.42 98.78 92.21 97.22 92.21C95.55 92.21 93.98 92.53 92.55 93.16C91.12 93.79 89.86 94.67 88.79 95.79C87.72 96.9 86.87 98.21 86.27 99.69C85.67 101.16 85.37 102.78 85.37 104.49C85.37 106.22 85.67 107.85 86.27 109.33C86.87 110.82 87.72 112.13 88.79 113.24C89.86 114.35 91.13 115.23 92.57 115.85C94.01 116.47 95.58 116.79 97.23 116.79C98.61 116.79 99.95 116.56 101.21 116.11C102.46 115.66 103.65 114.99 104.78 114.09C104.97 113.9 105.12 113.68 105.22 113.45C105.32 113.22 105.37 112.97 105.37 112.73C105.37 112.2 105.22 111.76 104.91 111.44C104.61 111.13 104.23 110.95 103.79 110.91C103.35 110.87 102.91 111.01 102.48 111.32C101.68 111.91 100.83 112.38 99.97 112.71C98.13 113.42 95.91 113.36 94.09 112.54C93.11 112.1 92.23 111.47 91.49 110.68C90.74 109.88 90.15 108.95 89.74 107.9C89.32 106.85 89.11 105.7 89.11 104.48C89.11 103.28 89.32 102.14 89.74 101.09C90.13 100.05 90.72 99.11 91.47 98.32Z" fill="#0075C9"/>
<path d="M121.34 93.8C121.03 92.96 120.4 92.52 119.53 92.52C118.71 92.52 118.08 92.96 117.73 93.79L109.37 113.74C109.08 114.38 109.12 115.03 109.48 115.61C109.84 116.19 110.4 116.5 111.08 116.5C111.43 116.5 111.77 116.4 112.09 116.21C112.42 116.01 112.68 115.71 112.85 115.32L114.46 111.39H124.62L126.2 115.32C126.35 115.69 126.59 115.99 126.93 116.2C127.26 116.41 127.61 116.51 127.98 116.51C128.68 116.51 129.23 116.22 129.59 115.67C129.94 115.12 129.99 114.5 129.73 113.83L121.34 93.8ZM123.29 108.07H115.82L119.59 98.86L123.29 108.07Z" fill="#0075C9"/>
<path d="M146.22 106.58C147.4 105.96 148.34 105.09 149.01 104C149.69 102.89 150.03 101.62 150.03 100.21C150.03 98.7 149.69 97.36 149.01 96.21C148.33 95.07 147.38 94.15 146.17 93.5C144.97 92.85 143.58 92.52 142.04 92.52H136.69C136.16 92.52 135.7 92.7 135.33 93.06C134.96 93.42 134.77 93.89 134.77 94.44V114.58C134.77 115.12 134.96 115.58 135.33 115.95C136.08 116.7 137.37 116.67 138.08 115.94C138.44 115.57 138.62 115.11 138.62 114.58V107.55H142.05C142.17 107.55 142.28 107.55 142.4 107.54L147.39 115.58C147.58 115.89 147.83 116.13 148.12 116.28C148.4 116.43 148.71 116.5 149.05 116.5C149.82 116.5 150.4 116.17 150.72 115.54C151.04 114.91 150.98 114.24 150.56 113.55L146.22 106.58ZM146.31 100.21C146.31 100.93 146.13 101.58 145.77 102.14C145.41 102.7 144.91 103.15 144.28 103.46C143.64 103.78 142.89 103.94 142.04 103.94H138.61V96.12H142.04C142.88 96.12 143.63 96.3 144.27 96.64C144.9 96.98 145.4 97.47 145.76 98.08C146.13 98.69 146.31 99.4 146.31 100.21Z" fill="#0075C9"/>
<path d="M171.17 112.89H159.64V106.2H167.8C168.35 106.2 168.81 106.03 169.16 105.69C169.51 105.35 169.69 104.91 169.69 104.39C169.69 103.87 169.51 103.44 169.16 103.09C168.81 102.75 168.35 102.58 167.8 102.58H159.64V96.1H171.17C171.72 96.1 172.18 95.94 172.52 95.61C172.88 95.28 173.06 94.85 173.06 94.32C173.06 93.78 172.88 93.33 172.53 92.99C172.18 92.65 171.72 92.48 171.17 92.48H157.72C157.19 92.48 156.73 92.66 156.36 93.02C155.99 93.38 155.8 93.85 155.8 94.4V114.54C155.8 115.08 155.99 115.54 156.36 115.91C156.73 116.28 157.19 116.46 157.72 116.46H171.17C171.72 116.46 172.18 116.29 172.53 115.95C172.88 115.61 173.06 115.16 173.06 114.63C173.06 114.11 172.88 113.68 172.52 113.34C172.18 113.05 171.72 112.89 171.17 112.89Z" fill="#0075C9"/>
<path d="M213.6 81.89C212.9 81.89 212.28 81.63 211.74 81.13C211.2 80.62 210.83 80.04 210.64 79.41L190.89 11.65C190.57 10.51 190.66 9.51001 191.18 8.64001C191.68 7.78001 192.48 7.35001 193.56 7.35001C194.19 7.35001 194.75 7.50001 195.23 7.78001C195.7 8.07001 196.07 8.66001 196.33 9.55001L214.75 73.3H212.46L230.02 12.03C230.14 11.53 230.48 11.09 231.02 10.74C231.56 10.39 232.12 10.22 232.69 10.22C233.33 10.22 233.89 10.39 234.41 10.74C234.91 11.09 235.27 11.56 235.46 12.12L253.02 73.3H250.73L269.15 9.27001C269.47 8.00001 270.39 7.36001 271.91 7.36001C272.99 7.36001 273.77 7.77001 274.25 8.60001C274.73 9.42001 274.81 10.45 274.49 11.65L254.83 79.41C254.57 80.23 254.18 80.85 253.63 81.27C253.09 81.69 252.5 81.89 251.87 81.89C251.1 81.89 250.46 81.65 249.96 81.18C249.45 80.7 249.1 80.12 248.91 79.42L231.54 17.96H233.83L216.65 79.42C216.4 80.18 216 80.79 215.46 81.23C214.92 81.66 214.3 81.89 213.6 81.89Z" fill="#0075C9"/>
<path d="M298.74 82.36C293.71 82.36 289.24 81.23 285.33 78.97C281.42 76.72 278.35 73.58 276.12 69.57C273.9 65.56 272.78 60.98 272.78 55.82C272.78 50.61 273.83 46.01 275.93 42.03C278.03 38.05 280.92 34.92 284.61 32.62C288.3 30.33 292.53 29.19 297.3 29.19C302.01 29.19 306.18 30.29 309.8 32.48C313.42 34.67 316.25 37.7 318.3 41.54C320.33 45.39 321.35 49.83 321.35 54.85C321.35 55.68 321.09 56.33 320.59 56.81C320.08 57.29 319.41 57.53 318.59 57.53H276.6V52.57H320.12L315.92 55.72C316.05 51.59 315.35 47.93 313.82 44.75C312.3 41.57 310.12 39.07 307.28 37.26C304.45 35.45 301.13 34.54 297.31 34.54C293.68 34.54 290.45 35.45 287.63 37.26C284.8 39.08 282.57 41.57 280.95 44.75C279.33 47.93 278.52 51.62 278.52 55.82C278.52 59.96 279.37 63.62 281.09 66.79C282.81 69.97 285.2 72.48 288.25 74.28C291.3 76.1 294.8 77 298.75 77C301.23 77 303.73 76.57 306.24 75.71C308.76 74.86 310.74 73.72 312.2 72.32C312.71 71.82 313.33 71.54 314.06 71.51C314.79 71.48 315.41 71.68 315.92 72.13C316.63 72.7 316.99 73.33 317.02 74.03C317.05 74.74 316.75 75.37 316.11 75.94C314.08 77.79 311.42 79.31 308.14 80.52C304.86 81.73 301.73 82.36 298.74 82.36Z" fill="#0075C9"/>
<path d="M344.25 81.89C341.83 81.89 339.68 81.22 337.8 79.89C335.92 78.55 334.46 76.71 333.41 74.35C332.36 72 331.83 69.26 331.83 66.14V10.22C331.83 9.33 332.1 8.63 332.65 8.12C333.19 7.62 333.87 7.36 334.7 7.36C335.59 7.36 336.28 7.62 336.8 8.12C337.31 8.63 337.56 9.33 337.56 10.22V66.14C337.56 69.07 338.18 71.48 339.42 73.35C340.66 75.23 342.27 76.17 344.24 76.17H346.62C347.32 76.17 347.89 76.43 348.34 76.93C348.78 77.44 349.01 78.14 349.01 79.03C349.01 79.86 348.75 80.54 348.25 81.09C347.74 81.63 347.04 81.9 346.15 81.9H344.25V81.89Z" fill="#0075C9"/>
<path d="M356.37 36.75C355.61 36.75 354.99 36.51 354.51 36.04C354.03 35.56 353.8 34.94 353.8 34.18C353.8 33.42 354.03 32.8 354.51 32.32C354.98 31.85 355.61 31.61 356.37 31.61H382.23C383 31.61 383.62 31.85 384.09 32.32C384.57 32.8 384.8 33.42 384.8 34.18C384.8 34.94 384.57 35.56 384.09 36.04C383.62 36.51 382.99 36.75 382.23 36.75H356.37ZM366.68 81.89C365.85 81.89 365.17 81.62 364.62 81.08C364.08 80.54 363.81 79.85 363.81 79.02V29.59C363.81 25.26 364.48 21.44 365.81 18.09C367.15 14.75 369.23 12.13 372.06 10.22C374.89 8.31001 378.5 7.35001 382.89 7.35001C383.78 7.35001 384.48 7.59001 384.99 8.06001C385.49 8.54001 385.75 9.16001 385.75 9.92001C385.75 10.68 385.49 11.3 384.99 11.78C384.48 12.26 383.78 12.5 382.89 12.5C379.65 12.5 377.06 13.25 375.12 14.74C373.18 16.24 371.78 18.27 370.92 20.85C370.07 23.43 369.63 26.33 369.63 29.58V79.01C369.63 79.84 369.37 80.52 368.82 81.07C368.28 81.62 367.56 81.89 366.68 81.89Z" fill="#0075C9"/>
<path d="M416.31 82.46C411.22 82.46 406.66 81.3 402.62 78.97C398.57 76.65 395.4 73.47 393.07 69.42C390.75 65.38 389.58 60.85 389.58 55.82C389.58 50.73 390.74 46.17 393.07 42.13C395.4 38.09 398.57 34.91 402.62 32.58C406.66 30.26 411.22 29.1 416.31 29.1C421.4 29.1 425.95 30.26 429.96 32.58C433.97 34.9 437.14 38.09 439.46 42.13C441.78 46.17 442.94 50.74 442.94 55.82L440.56 59.64C440.56 63.97 439.5 67.85 437.36 71.28C435.23 74.71 432.35 77.44 428.72 79.44C425.08 81.46 420.95 82.46 416.31 82.46ZM416.31 77.12C420.32 77.12 423.9 76.18 427.04 74.3C430.19 72.43 432.67 69.88 434.49 66.67C436.3 63.45 437.21 59.84 437.21 55.84C437.21 51.77 436.3 48.13 434.49 44.91C432.67 41.7 430.2 39.16 427.04 37.28C423.89 35.41 420.31 34.47 416.31 34.47C412.36 34.47 408.8 35.41 405.62 37.28C402.44 39.16 399.92 41.71 398.08 44.91C396.23 48.13 395.32 51.77 395.32 55.84C395.32 59.85 396.24 63.46 398.08 66.67C399.92 69.89 402.44 72.43 405.62 74.3C408.8 76.18 412.36 77.12 416.31 77.12ZM440.17 81.89C439.28 81.89 438.56 81.62 438.02 81.08C437.48 80.54 437.21 79.85 437.21 79.02V61.56L439.02 55.83H442.93V79.02C442.93 79.85 442.67 80.53 442.17 81.08C441.66 81.62 440.99 81.89 440.17 81.89Z" fill="#0075C9"/>
<path d="M460.11 81.89C459.28 81.89 458.6 81.62 458.05 81.08C457.51 80.54 457.24 79.85 457.24 79.02V32.55C457.24 31.66 457.51 30.96 458.05 30.45C458.59 29.94 459.28 29.68 460.11 29.68C461 29.68 461.69 29.94 462.21 30.45C462.71 30.95 462.97 31.65 462.97 32.55V79.02C462.97 79.85 462.71 80.53 462.21 81.08C461.69 81.62 461 81.89 460.11 81.89ZM459.16 50.02C459.54 45.95 460.65 42.34 462.5 39.19C464.34 36.04 466.72 33.57 469.65 31.8C472.58 30.02 475.82 29.13 479.39 29.13C481.81 29.13 483.68 29.42 485.02 29.98C486.36 30.55 486.86 31.57 486.54 33.04C486.35 33.99 485.9 34.56 485.2 34.76C484.5 34.95 483.66 34.96 482.68 34.81C481.69 34.65 480.59 34.57 479.39 34.57C476.21 34.57 473.38 35.24 470.89 36.57C468.41 37.91 466.47 39.74 465.07 42.06C463.66 44.38 462.97 47.04 462.97 50.03H459.16V50.02Z" fill="#0075C9"/>
<path d="M518.32 82.36C513.29 82.36 508.82 81.23 504.91 78.97C501 76.72 497.93 73.58 495.7 69.57C493.48 65.56 492.36 60.98 492.36 55.82C492.36 50.61 493.41 46.01 495.51 42.03C497.61 38.05 500.5 34.92 504.19 32.62C507.88 30.33 512.11 29.19 516.88 29.19C521.59 29.19 525.76 30.29 529.38 32.48C533 34.67 535.83 37.7 537.88 41.54C539.91 45.39 540.93 49.83 540.93 54.85C540.93 55.68 540.67 56.33 540.17 56.81C539.66 57.29 538.99 57.53 538.17 57.53H496.18V52.57H539.7L535.5 55.72C535.63 51.59 534.93 47.93 533.4 44.75C531.88 41.57 529.7 39.07 526.86 37.26C524.03 35.45 520.71 34.54 516.89 34.54C513.26 34.54 510.03 35.45 507.21 37.26C504.38 39.08 502.15 41.57 500.53 44.75C498.91 47.93 498.1 51.62 498.1 55.82C498.1 59.96 498.95 63.62 500.67 66.79C502.39 69.97 504.78 72.48 507.83 74.28C510.88 76.1 514.38 77 518.33 77C520.81 77 523.31 76.57 525.82 75.71C528.34 74.86 530.32 73.72 531.78 72.32C532.29 71.82 532.91 71.54 533.64 71.51C534.37 71.48 534.99 71.68 535.5 72.13C536.21 72.7 536.57 73.33 536.6 74.03C536.63 74.74 536.33 75.37 535.69 75.94C533.66 77.79 531 79.31 527.72 80.52C524.44 81.76 521.31 82.36 518.32 82.36Z" fill="#0075C9"/>
</svg>
