<?xml version="1.0" encoding="utf-8"?>
<!-- Generator: Adobe Illustrator 28.0.0, SVG Export Plug-In . SVG Version: 6.00 Build 0)  -->
<svg version="1.1" id="Layer_1" xmlns="http://www.w3.org/2000/svg" xmlns:xlink="http://www.w3.org/1999/xlink" x="0px" y="0px"
	 viewBox="0 0 337.8 78.7" style="enable-background:new 0 0 337.8 78.7;" xml:space="preserve">
<style type="text/css">
	.st0{fill:#BE5519;}
	.st1{fill:#FFFFFF;}
</style>
<path class="st0" d="M32.1,29.4c-2.3-1.7-5.1-2.6-7.9-2.5c-2.5-0.1-4.9,0.5-7.1,1.6c-1.8,1-3.4,2.4-4.6,4.1c-1.2,1.8-2,3.8-2.4,5.9
	c-0.5,2.3-0.7,4.6-0.7,7c0,2.2,0.3,4.3,0.8,6.4c0.5,2,1.3,3.9,2.4,5.6c1.1,1.6,2.6,3,4.3,3.9c2,1,4.1,1.5,6.4,1.5c3.9,0,6.9-1,9.1-3
	c2.3-2.3,3.7-5.3,4-8.6h8c-0.9,5.9-3,10.4-6.6,13.6c-3.5,3.2-8.3,4.8-14.4,4.8c-3.3,0.1-6.6-0.5-9.6-1.8c-2.7-1.1-5.1-2.8-7-5
	c-1.9-2.2-3.4-4.9-4.2-7.7c-1-3.2-1.5-6.5-1.4-9.8c0-3.4,0.4-6.8,1.4-10c0.8-3,2.3-5.7,4.2-8.1c1.9-2.3,4.3-4.2,7-5.4
	c3.1-1.4,6.5-2.1,9.8-2c2.6,0,5.1,0.3,7.6,1c2.3,0.6,4.4,1.6,6.2,3c1.8,1.4,3.4,3.1,4.5,5.1c1.2,2.3,2,4.8,2.2,7.3h-8.1
	C35.5,33.7,34.1,31.2,32.1,29.4"/>
<path class="st0" d="M60.8,61c1.7,1.3,3.8,2,5.9,2c2.8,0,5.6-0.7,8.1-2c4.2-1.8,6.8-6,6.6-10.5v-6.4c-1.2,0.7-2.4,1.2-3.7,1.5
	c-1.5,0.4-3,0.7-4.5,0.9l-4.8,0.6C66.2,47.4,64,48,62,49c-2.4,1.3-3.8,3.9-3.7,6.6C58.2,57.7,59.2,59.7,60.8,61 M77.5,39.6
	c1.5-0.1,2.9-0.9,3.7-2.3c0.4-0.9,0.6-2,0.5-3c0-2.7-1-4.7-2.9-5.9s-4.7-1.8-8.2-1.8c-4.1,0-7,1.1-8.8,3.4c-1.1,1.6-1.8,3.5-1.9,5.5
	h-7.4c0.1-5.8,2-9.9,5.6-12.1c3.8-2.3,8.1-3.5,12.6-3.4c5.5,0,10,1,13.5,3.1s5.2,5.4,5.1,9.8V60c0,0.7,0.1,1.4,0.5,2
	c0.5,0.6,1.3,0.9,2.1,0.7c0.3,0,0.8,0,1.2-0.1s0.9-0.1,1.4-0.2v5.8c-0.9,0.3-1.9,0.5-2.8,0.7c-0.9,0.1-1.8,0.1-2.6,0.1
	c-2.7,0-4.7-1-5.9-2.9c-0.7-1.3-1.2-2.8-1.4-4.3c-1.9,2.3-4.2,4.2-6.9,5.5c-3.1,1.6-6.5,2.4-10,2.3c-4,0.1-7.8-1.3-10.7-4
	c-2.7-2.6-4.2-6.2-4.2-9.9c0-4.4,1.4-7.7,4.1-10.1c3-2.5,6.8-4.1,10.7-4.4L77.5,39.6z"/>
<path class="st0" d="M100.7,21h7.5v8.1c0.6-1.6,2.1-3.5,4.5-5.8c2.2-2.2,5.2-3.4,8.3-3.4l0.8,0l1.8,0.2v8.4
	c-0.5-0.1-0.9-0.1-1.3-0.2s-0.8,0-1.3,0c-4,0-7,1.3-9.2,3.9c-2.1,2.5-3.2,5.6-3.2,8.8v27.1h-7.9V21z"/>
<path class="st0" d="M158.8,40.8c-0.2-2.9-0.9-5.7-2.2-8.2c-2.2-3.8-5.7-5.7-10.8-5.7c-3.5-0.1-6.8,1.4-9.1,3.9
	c-2.5,2.7-3.9,6.3-3.9,10L158.8,40.8z M155.9,22.3c2.9,1.4,5.3,3.5,7.1,6.1c1.6,2.5,2.7,5.3,3.1,8.3c0.6,3.4,0.8,6.9,0.7,10.4h-34.2
	c0.1,4.8,1.3,8.6,3.4,11.5s5.3,4.3,9.7,4.3c3.7,0.2,7.3-1.3,9.8-4.1c1.4-1.6,2.4-3.5,2.9-5.5h7.8c-0.3,2-1,4-2,5.8
	c-1,1.9-2.3,3.7-3.9,5.2c-2.5,2.4-5.6,4-8.9,4.7c-2.1,0.5-4.3,0.7-6.4,0.7c-5.6,0.1-11-2.2-14.8-6.4c-4-4.3-6.1-10.2-6.1-17.9
	c0-7.6,2-13.7,6.1-18.4c4-4.7,9.9-7.3,16-7.1C149.7,19.9,153,20.7,155.9,22.3"/>
<path class="st1" d="M197.4,1.2l2.7,0.2v10.4c-0.7-0.1-1.9-0.2-3.6-0.2s-2.9,0.3-3.5,1.1c-0.6,0.7-1,1.7-1,2.6v4.1h8.4v9H192v39.5
	h-12.8V28.6h-7.2v-9h7v-3.2c0-5.2,0.9-8.8,2.6-10.8c1.9-2.9,6.3-4.4,13.4-4.4C195.9,1.2,196.7,1.2,197.4,1.2"/>
<path class="st1" d="M238.3,55c2-2.7,3-6.5,3-11.3s-1-8.7-3-11.3c-4.1-4.8-11.3-5.3-16.1-1.2c-0.4,0.4-0.8,0.8-1.2,1.2
	c-2,2.7-3,6.4-3,11.3s1,8.7,3,11.3c4.1,4.8,11.2,5.3,16,1.3C237.5,55.9,237.9,55.5,238.3,55 M248.6,62.1c-4.1,5.1-10.4,7.7-18.8,7.7
	s-14.7-2.5-18.8-7.7c-4.2-5.2-6.4-11.7-6.2-18.4c-0.1-6.7,2.1-13.1,6.2-18.4c4.1-5.2,10.4-7.8,18.8-7.8s14.7,2.6,18.8,7.8
	c4.1,5.2,6.3,11.7,6.2,18.4C254.9,50.3,252.7,56.9,248.6,62.1"/>
<path class="st1" d="M255.4,68.1l16.7-24.8l-16-24.1h15.7l8.2,14.2l8-14.2h15.2L287.1,43l7.5,11.3c0,0-3.4-1.2-3.3-0.8s5,3.4,5,3.4
	l7.5,11.2l-16.9-2l-7.4-12.7l-8.5,14.7H255.4z"/>
<path class="st1" d="M284.5,61.3c2.8,7.7,9.6,13.3,17.8,14.5c1.3,0.2,2.5,0.3,3.8,0.4c0.8,0.1-2.7-2.1-2-2.1c1.1,0,5.4,2.2,6.3,2.2
	c6.4-0.4,11.4-3.5,18-9.4c0.4-0.4,0.2-1.6,0.8-2.2s-2.9-5-4.3-4.6c-2.6,0.7-4.8,3.8-13,4.6c-9.2,0.9-13.9-4.4-15.4-7
	c-7.1-3.4-11-3.4-13-7.4c0,5.8,4,7.8,2.8,8.8C283.2,59.1,284.5,61.3,284.5,61.3"/>
<path class="st1" d="M322.7,63.3c-1.8,0.4,0.3-1-0.5-1.7c0.8-0.2,2.3-2.4,4.5-1.6c3.1-1.7,7.1-0.6,8.8,2.6c0,0.1,0.1,0.1,0.1,0.2
	c-2.5,0.9-4.8,2.2-6.8,3.8c-0.8,0.6-2.6,2.1-2.6,2.1c-1.1-0.6-2.3-0.9-3.6-1.1c1.9-1.3,0.3-2.2,0.4-2.7S324.2,63,322.7,63.3"/>
<path class="st1" d="M323.4,62c0,0,2.8-2.5,4.4-0.5c-0.1-0.6-0.2-0.9,0.1-1c2.3-1.1,5-0.1,6.2,2.2c-2.9,1.3-5.7,3-8.1,5
	c-1-0.4-1.9,0.1-2.9,0.2c0.9-0.7,1.2-1.5,0.8-2.4c0.6-1,1.1-2-0.1-2c-0.6,0.1-1.1,0.1-1.7,0C322.5,62.9,324.1,62.3,323.4,62"/>
<path class="st1" d="M284.5,61.3c2.8,7.7,9.6,13.3,17.8,14.5c1.3,0.2,2.5,0.3,3.8,0.4c0.8,0.1-2.7-2.1-2-2.1c1.1,0,5.4,2.2,6.3,2.2
	c6.4-0.4,11.4-3.5,18-9.4c0.4-0.4,0.2-1.6,0.8-2.2s-2.9-5-4.3-4.6c-2.6,0.7-4.8,3.8-13,4.6c-9.2,0.9-13.9-4.4-15.4-7
	c-7.1-3.4-11-3.4-13-7.4c0,5.8,4,7.8,2.8,8.8C283.2,59.1,284.5,61.3,284.5,61.3"/>
<path class="st1" d="M322.7,63.3c-1.8,0.4,0.3-1-0.5-1.7c0.8-0.2,2.3-2.4,4.5-1.6c3.1-1.7,7.1-0.6,8.8,2.6c0,0.1,0.1,0.1,0.1,0.2
	c-2.5,0.9-4.8,2.2-6.8,3.8c-0.8,0.6-2.6,2.1-2.6,2.1c-1.1-0.6-2.3-0.9-3.6-1.1c1.9-1.3,0.3-2.2,0.4-2.7S324.2,63,322.7,63.3"/>
<path class="st1" d="M323.4,62c0,0,2.8-2.5,4.4-0.5c-0.1-0.6-0.2-0.9,0.1-1c2.3-1.1,5-0.1,6.2,2.2c-2.9,1.3-5.7,3-8.1,5
	c-1-0.4-1.9,0.1-2.9,0.2c0.9-0.7,1.2-1.5,0.8-2.4c0.6-1,1.1-2-0.1-2c-0.6,0.1-1.1,0.1-1.7,0C322.5,62.9,324.1,62.3,323.4,62"/>
<path class="st0" d="M32.1,29.4c-2.3-1.7-5.1-2.6-7.9-2.5c-2.5-0.1-4.9,0.5-7.1,1.6c-1.8,1-3.4,2.4-4.6,4.1c-1.2,1.8-2,3.8-2.4,5.9
	c-0.5,2.3-0.7,4.6-0.7,7c0,2.2,0.3,4.3,0.8,6.4c0.5,2,1.3,3.9,2.4,5.6c1.1,1.6,2.6,3,4.3,3.9c2,1,4.1,1.5,6.4,1.5c3.9,0,6.9-1,9.1-3
	c2.3-2.3,3.7-5.3,4-8.6h8c-0.9,5.9-3,10.4-6.6,13.6c-3.5,3.2-8.3,4.8-14.4,4.8c-3.3,0.1-6.6-0.5-9.6-1.8c-2.7-1.1-5.1-2.8-7-5
	c-1.9-2.2-3.4-4.9-4.2-7.7c-1-3.2-1.5-6.5-1.4-9.8c0-3.4,0.4-6.8,1.4-10c0.8-3,2.3-5.7,4.2-8.1c1.9-2.3,4.3-4.2,7-5.4
	c3.1-1.4,6.5-2.1,9.8-2c2.6,0,5.1,0.3,7.6,1c2.3,0.6,4.4,1.6,6.2,3c1.8,1.4,3.4,3.1,4.5,5.1c1.2,2.3,2,4.8,2.2,7.3h-8.1
	C35.5,33.7,34.1,31.2,32.1,29.4"/>
<path class="st0" d="M60.8,61c1.7,1.3,3.8,2,5.9,2c2.8,0,5.6-0.7,8.1-2c4.2-1.8,6.8-6,6.6-10.5v-6.4c-1.2,0.7-2.4,1.2-3.7,1.5
	c-1.5,0.4-3,0.7-4.5,0.9l-4.8,0.6C66.2,47.4,64,48,62,49c-2.4,1.3-3.8,3.9-3.7,6.6C58.2,57.7,59.2,59.7,60.8,61 M77.5,39.6
	c1.5-0.1,2.9-0.9,3.7-2.3c0.4-0.9,0.6-2,0.5-3c0-2.7-1-4.7-2.9-5.9s-4.7-1.8-8.2-1.8c-4.1,0-7,1.1-8.8,3.4c-1.1,1.6-1.8,3.5-1.9,5.5
	h-7.4c0.1-5.8,2-9.9,5.6-12.1c3.8-2.3,8.1-3.5,12.6-3.4c5.5,0,10,1,13.5,3.1s5.2,5.4,5.1,9.8V60c0,0.7,0.1,1.4,0.5,2
	c0.5,0.6,1.3,0.9,2.1,0.7c0.3,0,0.8,0,1.2-0.1s0.9-0.1,1.4-0.2v5.8c-0.9,0.3-1.9,0.5-2.8,0.7c-0.9,0.1-1.8,0.1-2.6,0.1
	c-2.7,0-4.7-1-5.9-2.9c-0.7-1.3-1.2-2.8-1.4-4.3c-1.9,2.3-4.2,4.2-6.9,5.5c-3.1,1.6-6.5,2.4-10,2.3c-4,0.1-7.8-1.3-10.7-4
	c-2.7-2.6-4.2-6.2-4.2-9.9c0-4.4,1.4-7.7,4.1-10.1c3-2.5,6.8-4.1,10.7-4.4L77.5,39.6z"/>
<path class="st0" d="M100.7,21h7.5v8.1c0.6-1.6,2.1-3.5,4.5-5.8c2.2-2.2,5.2-3.4,8.3-3.4l0.8,0l1.8,0.2v8.4
	c-0.5-0.1-0.9-0.1-1.3-0.2s-0.8,0-1.3,0c-4,0-7,1.3-9.2,3.9c-2.1,2.5-3.2,5.6-3.2,8.8v27.1h-7.9V21z"/>
<path class="st0" d="M158.8,40.8c-0.2-2.9-0.9-5.7-2.2-8.2c-2.2-3.8-5.7-5.7-10.8-5.7c-3.5-0.1-6.8,1.4-9.1,3.9
	c-2.5,2.7-3.9,6.3-3.9,10L158.8,40.8z M155.9,22.3c2.9,1.4,5.3,3.5,7.1,6.1c1.6,2.5,2.7,5.3,3.1,8.3c0.6,3.4,0.8,6.9,0.7,10.4h-34.2
	c0.1,4.8,1.3,8.6,3.4,11.5s5.3,4.3,9.7,4.3c3.7,0.2,7.3-1.3,9.8-4.1c1.4-1.6,2.4-3.5,2.9-5.5h7.8c-0.3,2-1,4-2,5.8
	c-1,1.9-2.3,3.7-3.9,5.2c-2.5,2.4-5.6,4-8.9,4.7c-2.1,0.5-4.3,0.7-6.4,0.7c-5.6,0.1-11-2.2-14.8-6.4c-4-4.3-6.1-10.2-6.1-17.9
	c0-7.6,2-13.7,6.1-18.4c4-4.7,9.9-7.3,16-7.1C149.7,19.9,153,20.7,155.9,22.3"/>
<path class="st1" d="M197.4,1.2l2.7,0.2v10.4c-0.7-0.1-1.9-0.2-3.6-0.2s-2.9,0.3-3.5,1.1c-0.6,0.7-1,1.7-1,2.6v4.1h8.4v9H192v39.5
	h-12.8V28.6h-7.2v-9h7v-3.2c0-5.2,0.9-8.8,2.6-10.8c1.9-2.9,6.3-4.4,13.4-4.4C195.9,1.2,196.7,1.2,197.4,1.2"/>
<path class="st1" d="M238.3,55c2-2.7,3-6.5,3-11.3s-1-8.7-3-11.3c-4.1-4.8-11.3-5.3-16.1-1.2c-0.4,0.4-0.8,0.8-1.2,1.2
	c-2,2.7-3,6.4-3,11.3s1,8.7,3,11.3c4.1,4.8,11.2,5.3,16,1.3C237.5,55.9,237.9,55.5,238.3,55 M248.6,62.1c-4.1,5.1-10.4,7.7-18.8,7.7
	s-14.7-2.5-18.8-7.7c-4.2-5.2-6.4-11.7-6.2-18.4c-0.1-6.7,2.1-13.1,6.2-18.4c4.1-5.2,10.4-7.8,18.8-7.8s14.7,2.6,18.8,7.8
	c4.1,5.2,6.3,11.7,6.2,18.4C254.9,50.3,252.7,56.9,248.6,62.1"/>
<path class="st1" d="M255.4,68.1l16.7-24.8l-16-24.1h15.7l8.2,14.2l8-14.2h15.2L287.1,43l7.5,11.3c0,0-3.4-1.2-3.3-0.8s5,3.4,5,3.4
	l7.5,11.2l-16.9-2l-7.4-12.7l-8.5,14.7H255.4z"/>
<path class="st0" d="M32.1,29.4c-2.3-1.7-5.1-2.6-7.9-2.5c-2.5-0.1-4.9,0.5-7.1,1.6c-1.8,1-3.4,2.4-4.6,4.1c-1.2,1.8-2,3.8-2.4,5.9
	c-0.5,2.3-0.7,4.6-0.7,7c0,2.2,0.3,4.3,0.8,6.4c0.5,2,1.3,3.9,2.4,5.6c1.1,1.6,2.6,3,4.3,3.9c2,1,4.1,1.5,6.4,1.5c3.9,0,6.9-1,9.1-3
	c2.3-2.3,3.7-5.3,4-8.6h8c-0.9,5.9-3,10.4-6.6,13.6c-3.5,3.2-8.3,4.8-14.4,4.8c-3.3,0.1-6.6-0.5-9.6-1.8c-2.7-1.1-5.1-2.8-7-5
	c-1.9-2.2-3.4-4.9-4.2-7.7c-1-3.2-1.5-6.5-1.4-9.8c0-3.4,0.4-6.8,1.4-10c0.8-3,2.3-5.7,4.2-8.1c1.9-2.3,4.3-4.2,7-5.4
	c3.1-1.4,6.5-2.1,9.8-2c2.6,0,5.1,0.3,7.6,1c2.3,0.6,4.4,1.6,6.2,3c1.8,1.4,3.4,3.1,4.5,5.1c1.2,2.3,2,4.8,2.2,7.3h-8.1
	C35.5,33.7,34.1,31.2,32.1,29.4"/>
<path class="st0" d="M60.8,61c1.7,1.3,3.8,2,5.9,2c2.8,0,5.6-0.7,8.1-2c4.2-1.8,6.8-6,6.6-10.5v-6.4c-1.2,0.7-2.4,1.2-3.7,1.5
	c-1.5,0.4-3,0.7-4.5,0.9l-4.8,0.6C66.2,47.4,64,48,62,49c-2.4,1.3-3.8,3.9-3.7,6.6C58.2,57.7,59.2,59.7,60.8,61 M77.5,39.6
	c1.5-0.1,2.9-0.9,3.7-2.3c0.4-1,0.6-2,0.5-3c0-2.7-1-4.7-2.9-5.9s-4.7-1.8-8.2-1.8c-4.1,0-7,1.1-8.8,3.4c-1.1,1.6-1.8,3.5-1.9,5.5
	h-7.4c0.1-5.8,2-9.9,5.6-12.1c3.8-2.3,8.1-3.5,12.6-3.4c5.5,0,10,1.1,13.5,3.2s5.1,5.4,5.1,9.8V60c0,0.7,0.1,1.4,0.5,2
	c0.5,0.6,1.3,0.9,2.1,0.7c0.3,0,0.8,0,1.2-0.1s0.9-0.1,1.4-0.2v5.8c-0.9,0.3-1.9,0.5-2.8,0.7c-0.9,0.1-1.8,0.1-2.6,0.1
	c-2.7,0-4.7-1-5.9-2.9c-0.7-1.3-1.2-2.8-1.4-4.3c-1.9,2.3-4.2,4.2-6.9,5.5c-3.1,1.6-6.5,2.4-10,2.3c-4,0.1-7.8-1.3-10.7-4
	c-2.7-2.6-4.2-6.2-4.2-9.9c0-4.4,1.4-7.7,4.1-10.1c3-2.5,6.8-4.1,10.7-4.4L77.5,39.6z"/>
<path class="st0" d="M100.7,21h7.5v8.1c0.6-1.6,2.1-3.5,4.5-5.8c2.2-2.2,5.2-3.4,8.3-3.4l0.8,0l1.8,0.2v8.4
	c-0.5-0.1-0.9-0.1-1.3-0.2s-0.8,0-1.3,0c-4,0-7.1,1.3-9.2,3.9c-2.1,2.5-3.2,5.6-3.2,8.9v27h-7.9V21z"/>
<path class="st0" d="M158.8,40.8c-0.2-2.9-0.9-5.7-2.2-8.2c-2.2-3.8-5.7-5.7-10.8-5.7c-3.5-0.1-6.8,1.4-9.1,3.9
	c-2.5,2.7-3.9,6.3-3.9,10L158.8,40.8z M155.9,22.3c2.9,1.4,5.3,3.5,7.1,6.1c1.6,2.5,2.7,5.3,3.1,8.3c0.6,3.4,0.8,6.9,0.7,10.4h-34.2
	c0.1,4.8,1.3,8.6,3.4,11.5s5.3,4.3,9.7,4.3c3.7,0.2,7.3-1.3,9.8-4.1c1.4-1.6,2.4-3.5,2.9-5.5h7.8c-0.3,2-1,4-2,5.8
	c-1,1.9-2.3,3.7-3.9,5.2c-2.5,2.4-5.6,4-8.9,4.7c-2.1,0.5-4.3,0.7-6.4,0.7c-5.6,0.1-11-2.2-14.8-6.4c-4-4.3-6.1-10.2-6.1-17.9
	c0-7.6,2-13.7,6.1-18.4c4-4.7,9.9-7.3,16-7.1C149.7,19.9,153,20.7,155.9,22.3"/>
<path class="st0" d="M197.4,1.2l2.7,0.2v10.4c-0.7-0.1-1.9-0.2-3.6-0.2s-2.9,0.3-3.5,1.1c-0.6,0.7-1,1.7-1,2.6v4.1h8.4v9H192v39.5
	h-12.8V28.6h-7.2v-9h7v-3.2c0-5.2,0.9-8.8,2.6-10.8c1.9-2.9,6.3-4.4,13.4-4.4C195.9,1.2,196.7,1.2,197.4,1.2"/>
<path class="st0" d="M238.3,55c2-2.7,3-6.5,3-11.3s-1-8.7-3-11.3c-4.1-4.8-11.3-5.3-16.1-1.2c-0.4,0.4-0.8,0.8-1.2,1.2
	c-2,2.7-3,6.4-3,11.3s1,8.7,3,11.3c4.1,4.8,11.2,5.3,16,1.3C237.5,55.9,237.9,55.5,238.3,55 M248.6,62.1c-4.1,5.1-10.4,7.7-18.8,7.7
	s-14.7-2.5-18.8-7.7c-4.2-5.2-6.4-11.7-6.2-18.4c-0.1-6.7,2.1-13.2,6.2-18.4c4.1-5.2,10.4-7.8,18.8-7.8c8.4,0,14.7,2.6,18.8,7.8
	c4.1,5.2,6.3,11.7,6.2,18.4C254.9,50.3,252.7,56.9,248.6,62.1"/>
<path class="st0" d="M255.4,68.1l16.7-24.8l-16-24.1h15.7l8.2,14.2l8-14.2h15.2L287.1,43l7.5,11.3c0,0-3.4-1.2-3.3-0.8s5,3.4,5,3.4
	l7.5,11.2l-16.9-2l-7.4-12.7l-8.5,14.7H255.4z"/>
<path class="st0" d="M284.5,61.3c2.8,7.7,9.6,13.3,17.8,14.5c1.3,0.2,2.5,0.3,3.8,0.4c0.8,0.1-2.7-2.1-2-2.1c1.1,0,5.4,2.2,6.3,2.2
	c6.4-0.4,11.4-3.5,18-9.4c0.4-0.4,0.2-1.6,0.8-2.2s-2.9-5-4.3-4.6c-2.6,0.7-4.8,3.8-13,4.6c-9.2,0.9-13.9-4.4-15.4-7
	c-7.1-3.4-11-3.4-13-7.4c0,5.8,4,7.8,2.8,8.8C283.2,59.1,284.5,61.3,284.5,61.3"/>
<path class="st0" d="M322.7,63.3c-1.8,0.4,0.3-1-0.5-1.7c0.8-0.2,2.3-2.4,4.5-1.6c3.1-1.7,7.1-0.6,8.8,2.6c0,0.1,0.1,0.1,0.1,0.2
	c-2.5,0.9-4.8,2.2-6.8,3.8c-0.8,0.6-2.6,2.1-2.6,2.1c-1.1-0.6-2.3-0.9-3.6-1.1c1.9-1.3,0.3-2.2,0.4-2.7S324.2,63,322.7,63.3"/>
<path class="st1" d="M323.4,62c0,0,2.8-2.5,4.4-0.5c-0.1-0.6-0.2-0.9,0.1-1c2.3-1.1,5-0.1,6.2,2.2c-2.9,1.3-5.7,3-8.1,5
	c-1-0.4-1.9,0-2.9,0.2c0.9-0.7,1.2-1.5,0.8-2.4c0.6-1,1.1-2-0.1-2c-0.6,0.1-1.1,0.1-1.7,0C322.5,62.9,324.1,62.3,323.4,62"/>
</svg>
