<svg xmlns="http://www.w3.org/2000/svg" viewBox="0 0 1589.8 423" role="img"><g id="Layer_2" data-name="Layer 2"><g id="Layer_1-2" data-name="Layer 1"><path fill="currentColor" d="M420,421.2V423H208.2C93.2,423,0,329.8,0,214.8V213H211.8C326.8,213,420,306.2,420,421.2Z"/><path fill="currentColor" d="M420,210.6a212.91,212.91,0,0,1-6.8,53.4c-48.9-59.4-119.1-96.8-197.2-97.6H3A210.81,210.81,0,0,1,209.2,0C325.6,0,420,94.3,420,210.6Z"/><path fill="currentColor" d="M742,281.6c14.3-18.5,22.6-41.8,22.6-68,0-64.5-50.4-111.7-118.3-111.7C578,101.9,528,149.4,528,213.6s50,111.8,118.3,111.8c21.5,0,41.2-4.7,58.1-13.2l37.5,37.4,34.1-34Zm-95.7,1.1c-38.6,0-67.6-28-67.6-69.1s29-69.1,67.6-69.1,67.6,28.1,67.6,69.1S684.9,282.7,646.3,282.7Z"/><path fill="currentColor" d="M955.1,155.5V321.6H909.4V301.8c-12.7,14.5-31.2,22.2-51.6,22.2-41.7,0-71-23.5-71-74.7V155.5h48.1v86.8c0,27.8,12.4,40.1,33.7,40.1,22.2,0,38.3-14.2,38.3-44.8V155.5Z"/><path fill="currentColor" d="M1045,102.1A33.1,33.1,0,1,1,1011.9,69,33.08,33.08,0,0,1,1045,102.1Z"/><rect fill="currentColor" x="987" y="155.6" width="48.2" height="166.1"/><path fill="currentColor" d="M1237,226.6v95.1h-48.2V234c0-26.9-12.4-39.2-33.7-39.2-23.2,0-39.8,14.2-39.8,44.8v82.1h-48.2V155.6h46V175c13-14.2,32.5-21.9,55-21.9C1207.3,153.1,1237,175.9,1237,226.6Z"/><path fill="currentColor" d="M1589.8,321.7h-54.7l-36.4-50.9L1461,321.7h-52.5l63.9-83.6-47.7-63.7-67.1,157.5c-15.9,39.7-38.4,51.9-67.9,52.2h-1c-17,0-35.5-5.6-46.3-15.1l17.6-34.3a42.61,42.61,0,0,0,27.2,10.5c13.3,0,20.7-5.9,27.2-20.7l.6-1.5-72-167.3h50v-.1l46.6,112.7,46.9-112.7h78.3l35.2,48.5,36.1-48.5h51.3l-61.8,81.2Z"/></g></g></svg>